<mxfile host="app.diagrams.net" modified="2023-12-06T05:32:10.378Z" agent="Mozilla/5.0 (Windows NT 10.0; Win64; x64) AppleWebKit/537.36 (KHTML, like Gecko) Chrome/119.0.0.0 Safari/537.36" etag="FOSBPkw2hRsDBo5Dymh6" version="22.1.5" type="github">
  <diagram name="PÃ¡gina-1" id="hXVM1QvfM7a2TpKPJlc6">
    <mxGraphModel dx="1687" dy="2087" grid="1" gridSize="10" guides="1" tooltips="1" connect="1" arrows="1" fold="1" page="1" pageScale="1" pageWidth="827" pageHeight="1169" math="0" shadow="0">
      <root>
        <mxCell id="0" />
        <mxCell id="1" parent="0" />
        <mxCell id="_H1YViC3n2ENdSDlW2ix-1" value="" style="strokeWidth=1;shadow=0;dashed=0;align=right;html=1;shape=mxgraph.mockup.containers.browserWindow;rSize=0;strokeColor=#666666;mainText=,;recursiveResize=0;rounded=0;labelBackgroundColor=none;fontFamily=Verdana;fontSize=12" vertex="1" parent="1">
          <mxGeometry x="50" y="-200" width="1100" height="860" as="geometry" />
        </mxCell>
        <mxCell id="_H1YViC3n2ENdSDlW2ix-2" value="Workshops" style="strokeWidth=1;shadow=0;dashed=0;align=center;html=1;shape=mxgraph.mockup.containers.anchor;fontSize=17;fontColor=#666666;align=left;" vertex="1" parent="_H1YViC3n2ENdSDlW2ix-1">
          <mxGeometry x="60" y="12" width="110" height="28" as="geometry" />
        </mxCell>
        <mxCell id="_H1YViC3n2ENdSDlW2ix-3" value="https://universe.rollingcodeschool.com/workshop/:id/details" style="strokeWidth=1;shadow=0;dashed=0;align=center;html=1;shape=mxgraph.mockup.containers.anchor;rSize=0;fontSize=17;fontColor=#666666;align=left;" vertex="1" parent="_H1YViC3n2ENdSDlW2ix-1">
          <mxGeometry x="130" y="60" width="500" height="30" as="geometry" />
        </mxCell>
        <mxCell id="_H1YViC3n2ENdSDlW2ix-4" value="" style="verticalLabelPosition=bottom;shadow=0;dashed=0;align=center;html=1;verticalAlign=top;strokeWidth=1;shape=mxgraph.mockup.markup.line;strokeColor=#999999;rounded=0;labelBackgroundColor=none;fillColor=#ffffff;fontFamily=Verdana;fontSize=12;fontColor=#000000;" vertex="1" parent="_H1YViC3n2ENdSDlW2ix-1">
          <mxGeometry y="750" width="1100" height="20" as="geometry" />
        </mxCell>
        <mxCell id="_H1YViC3n2ENdSDlW2ix-5" value="" style="verticalLabelPosition=bottom;shadow=0;dashed=0;align=center;html=1;verticalAlign=top;strokeWidth=1;shape=mxgraph.mockup.markup.line;strokeColor=#999999;rounded=0;labelBackgroundColor=none;fillColor=#ffffff;fontFamily=Verdana;fontSize=12;fontColor=#000000;" vertex="1" parent="_H1YViC3n2ENdSDlW2ix-1">
          <mxGeometry y="150" width="1090" height="20" as="geometry" />
        </mxCell>
        <mxCell id="_H1YViC3n2ENdSDlW2ix-6" value="Navbar" style="text;html=1;strokeColor=none;fillColor=none;align=center;verticalAlign=middle;whiteSpace=wrap;rounded=0;fontSize=37;" vertex="1" parent="_H1YViC3n2ENdSDlW2ix-1">
          <mxGeometry x="475" y="110" width="150" height="50" as="geometry" />
        </mxCell>
        <mxCell id="_H1YViC3n2ENdSDlW2ix-7" value="Footer" style="text;html=1;strokeColor=none;fillColor=none;align=center;verticalAlign=middle;whiteSpace=wrap;rounded=0;fontSize=37;" vertex="1" parent="_H1YViC3n2ENdSDlW2ix-1">
          <mxGeometry x="465" y="760" width="170" height="100" as="geometry" />
        </mxCell>
        <mxCell id="_H1YViC3n2ENdSDlW2ix-30" value="" style="verticalLabelPosition=bottom;shadow=0;dashed=0;align=center;html=1;verticalAlign=top;strokeWidth=1;shape=mxgraph.mockup.graphics.simpleIcon;strokeColor=#999999;fillColor=#ffffff;rounded=0;labelBackgroundColor=none;fontFamily=Verdana;fontSize=12;fontColor=#000000;" vertex="1" parent="_H1YViC3n2ENdSDlW2ix-1">
          <mxGeometry x="160" y="170" width="200" height="200" as="geometry" />
        </mxCell>
        <mxCell id="_H1YViC3n2ENdSDlW2ix-32" value="Workshop image" style="text;html=1;strokeColor=none;fillColor=none;align=center;verticalAlign=middle;whiteSpace=wrap;rounded=0;" vertex="1" parent="_H1YViC3n2ENdSDlW2ix-1">
          <mxGeometry x="160" y="340" width="200" height="30" as="geometry" />
        </mxCell>
        <mxCell id="_H1YViC3n2ENdSDlW2ix-34" value="&lt;h1&gt;Workshop title&lt;/h1&gt;&lt;p&gt;Workshop details&lt;br&gt;&lt;br&gt;&lt;span style=&quot;background-color: initial;&quot;&gt;Lorem ipsum dolor sit amet, consectetur adipisicing elit, sed do eiusmod tempor incididunt ut labore et dolore magna aliqua&lt;/span&gt;&lt;br&gt;&lt;/p&gt;" style="text;html=1;strokeColor=none;fillColor=none;spacing=5;spacingTop=-20;whiteSpace=wrap;overflow=hidden;rounded=0;" vertex="1" parent="_H1YViC3n2ENdSDlW2ix-1">
          <mxGeometry x="400" y="170" width="566" height="120" as="geometry" />
        </mxCell>
        <mxCell id="_H1YViC3n2ENdSDlW2ix-35" value="&lt;span style=&quot;font-weight: normal;&quot;&gt;&lt;font style=&quot;font-size: 12px;&quot;&gt;Workshop date&lt;/font&gt;&lt;/span&gt;" style="text;strokeColor=none;fillColor=none;html=1;fontSize=24;fontStyle=1;verticalAlign=middle;align=center;" vertex="1" parent="_H1YViC3n2ENdSDlW2ix-1">
          <mxGeometry x="850" y="180" width="100" height="40" as="geometry" />
        </mxCell>
        <mxCell id="_H1YViC3n2ENdSDlW2ix-37" value="" style="verticalLabelPosition=bottom;shadow=0;dashed=0;align=center;html=1;verticalAlign=top;strokeWidth=1;shape=mxgraph.mockup.graphics.pieChart;strokeColor=#008cff;parts=10,20,35;partColors=#e0e0e0,#d0d0d0,#c0c0c0,#b0b0b0,#a0a0a0;strokeWidth=2;" vertex="1" parent="_H1YViC3n2ENdSDlW2ix-1">
          <mxGeometry x="665" y="400" width="110" height="110" as="geometry" />
        </mxCell>
        <mxCell id="_H1YViC3n2ENdSDlW2ix-41" value="" style="line;strokeWidth=1;html=1;perimeter=backbonePerimeter;points=[];outlineConnect=0;" vertex="1" parent="_H1YViC3n2ENdSDlW2ix-1">
          <mxGeometry x="140" y="380" width="850" height="10" as="geometry" />
        </mxCell>
        <mxCell id="_H1YViC3n2ENdSDlW2ix-65" value="" style="group" vertex="1" connectable="0" parent="_H1YViC3n2ENdSDlW2ix-1">
          <mxGeometry x="320" y="550" width="130" height="70" as="geometry" />
        </mxCell>
        <mxCell id="_H1YViC3n2ENdSDlW2ix-46" value="Question 2" style="text;strokeColor=none;fillColor=none;html=1;fontSize=24;fontStyle=1;verticalAlign=middle;align=center;" vertex="1" parent="_H1YViC3n2ENdSDlW2ix-65">
          <mxGeometry width="130" height="40" as="geometry" />
        </mxCell>
        <mxCell id="_H1YViC3n2ENdSDlW2ix-66" value="" style="group" vertex="1" connectable="0" parent="_H1YViC3n2ENdSDlW2ix-1">
          <mxGeometry x="320" y="410" width="135" height="60" as="geometry" />
        </mxCell>
        <mxCell id="_H1YViC3n2ENdSDlW2ix-42" value="Question 1&amp;nbsp;" style="text;strokeColor=none;fillColor=none;html=1;fontSize=24;fontStyle=1;verticalAlign=middle;align=center;" vertex="1" parent="_H1YViC3n2ENdSDlW2ix-66">
          <mxGeometry width="135" height="40" as="geometry" />
        </mxCell>
        <mxCell id="_H1YViC3n2ENdSDlW2ix-45" value="(quantifiable response)" style="text;html=1;strokeColor=none;fillColor=none;align=center;verticalAlign=middle;whiteSpace=wrap;rounded=0;" vertex="1" parent="_H1YViC3n2ENdSDlW2ix-66">
          <mxGeometry y="30" width="130" height="30" as="geometry" />
        </mxCell>
        <mxCell id="_H1YViC3n2ENdSDlW2ix-67" value="" style="rounded=1;whiteSpace=wrap;html=1;" vertex="1" parent="_H1YViC3n2ENdSDlW2ix-1">
          <mxGeometry x="510" y="530" width="420" height="210" as="geometry" />
        </mxCell>
        <mxCell id="_H1YViC3n2ENdSDlW2ix-68" value="" style="verticalLabelPosition=bottom;shadow=0;dashed=0;align=center;html=1;verticalAlign=top;strokeWidth=1;shape=mxgraph.mockup.navigation.scrollBar;strokeColor=#999999;barPos=20;fillColor2=#99ddff;strokeColor2=none;direction=north;" vertex="1" parent="_H1YViC3n2ENdSDlW2ix-1">
          <mxGeometry x="890" y="537.5" width="20" height="195" as="geometry" />
        </mxCell>
        <mxCell id="_H1YViC3n2ENdSDlW2ix-69" value="&lt;h1 style=&quot;line-height: 50%;&quot;&gt;&lt;span style=&quot;background-color: initial; font-size: 12px; font-weight: normal;&quot;&gt;Lorem ipsum dolor sit amet, consectetur adipisicing elit, sed do eiusmod tempor incididunt ut labore et dolore magna aliqua.&lt;/span&gt;&lt;br&gt;&lt;/h1&gt;" style="text;html=1;strokeColor=none;fillColor=none;spacing=5;spacingTop=-20;whiteSpace=wrap;overflow=hidden;rounded=0;" vertex="1" parent="_H1YViC3n2ENdSDlW2ix-1">
          <mxGeometry x="559" y="545" width="291" height="80" as="geometry" />
        </mxCell>
        <mxCell id="_H1YViC3n2ENdSDlW2ix-70" value="&lt;h1 style=&quot;line-height: 50%;&quot;&gt;&lt;span style=&quot;background-color: initial; font-size: 12px; font-weight: normal;&quot;&gt;Lorem ipsum dolor sit amet, consectetur adipisicing elit, sed do eiusmod tempor incididunt ut labore et dolore magna aliqua.&lt;/span&gt;&lt;br&gt;&lt;/h1&gt;" style="text;html=1;strokeColor=none;fillColor=none;spacing=5;spacingTop=-20;whiteSpace=wrap;overflow=hidden;rounded=0;" vertex="1" parent="_H1YViC3n2ENdSDlW2ix-1">
          <mxGeometry x="559" y="620" width="291" height="80" as="geometry" />
        </mxCell>
        <mxCell id="_H1YViC3n2ENdSDlW2ix-71" value="&lt;h1 style=&quot;line-height: 50%;&quot;&gt;&lt;span style=&quot;background-color: initial; font-size: 12px; font-weight: normal;&quot;&gt;Lorem ipsum dolor sit amet, consectetur adipisicing elit, sed do eiusmod tempor incididunt ut labore et&lt;/span&gt;&lt;br&gt;&lt;/h1&gt;" style="text;html=1;strokeColor=none;fillColor=none;spacing=5;spacingTop=-20;whiteSpace=wrap;overflow=hidden;rounded=0;" vertex="1" parent="_H1YViC3n2ENdSDlW2ix-1">
          <mxGeometry x="559" y="700" width="291" height="80" as="geometry" />
        </mxCell>
        <mxCell id="_H1YViC3n2ENdSDlW2ix-74" value="" style="line;strokeWidth=1;html=1;" vertex="1" parent="_H1YViC3n2ENdSDlW2ix-1">
          <mxGeometry x="560" y="610" width="280" height="10" as="geometry" />
        </mxCell>
        <mxCell id="_H1YViC3n2ENdSDlW2ix-77" value="" style="line;strokeWidth=1;html=1;" vertex="1" parent="_H1YViC3n2ENdSDlW2ix-1">
          <mxGeometry x="559" y="690" width="281" height="10" as="geometry" />
        </mxCell>
        <mxCell id="_H1YViC3n2ENdSDlW2ix-64" value="(text response)" style="text;html=1;strokeColor=none;fillColor=none;align=center;verticalAlign=middle;whiteSpace=wrap;rounded=0;" vertex="1" parent="_H1YViC3n2ENdSDlW2ix-1">
          <mxGeometry x="320" y="580" width="90" height="30" as="geometry" />
        </mxCell>
      </root>
    </mxGraphModel>
  </diagram>
</mxfile>
